<svg width="1161" height="230" viewBox="0 0 1161 230" fill="none" xmlns="http://www.w3.org/2000/svg">
<mask id="mask0_2748_105576" style="mask-type:luminance" maskUnits="userSpaceOnUse" x="684" y="42" width="429" height="163">
<path d="M1112.75 42.4995H684.625V204.422H1112.75V42.4995Z" fill="white"/>
</mask>
<g mask="url(#mask0_2748_105576)">
<path d="M712.41 84.236C713.212 86.8069 714.931 89.3573 717.557 91.8874C720.183 94.4072 723.309 96.9066 726.935 99.3959C730.561 101.875 734.296 104.334 738.146 106.782C741.991 109.22 745.591 111.679 748.941 114.168C752.286 116.647 755.005 119.126 757.089 121.615C759.173 124.094 760.215 126.614 760.215 129.185C760.215 132.031 759.262 135 757.36 138.101C755.453 141.203 752.869 144.238 749.608 147.201C746.357 150.17 742.736 152.874 738.751 155.322C734.76 157.76 730.665 159.688 726.455 161.117C722.246 162.535 718.234 163.239 714.431 163.239C711.441 163.239 708.346 162.861 705.137 162.116C701.928 161.356 698.911 160.219 696.093 158.709C693.284 157.199 690.997 155.337 689.236 153.118C687.47 150.905 686.59 148.334 686.59 145.406L706.429 127.186L710.493 129.573C709.143 131.44 708.94 133.24 709.888 134.98C710.831 136.709 712.597 138.326 715.181 139.836C717.765 141.335 720.839 142.641 724.413 143.753C727.998 144.855 731.733 145.722 735.625 146.344C736.083 144.661 736.354 143.039 736.437 141.488C736.531 139.938 736.312 138.459 735.771 137.04C734.312 134.281 731.926 131.664 728.623 129.185C725.33 126.696 721.642 124.283 717.557 121.942C713.483 119.59 709.523 117.285 705.679 115.025C701.829 112.77 698.614 110.444 696.03 108.047C693.446 105.655 692.06 103.211 691.883 100.722C691.701 97.7024 692.56 94.5806 694.467 91.3569C696.369 88.1229 698.812 85.0216 701.803 82.0528C704.788 79.0739 707.794 76.3909 710.826 73.9934C713.868 71.6011 716.432 69.7189 718.516 68.3417C720.6 66.9695 721.642 66.2809 721.642 66.2809C723.444 65.48 725.794 64.97 728.685 64.7506C731.587 64.5364 734.713 64.5823 738.063 64.8934C741.423 65.1944 744.638 65.7912 747.712 66.689C750.796 67.5765 753.468 68.7038 755.735 70.076C757.996 71.4532 759.491 73.0702 760.215 74.932L738.084 97.8044L733.999 94.7439C735.541 93.0606 735.812 91.4181 734.812 89.8266C733.812 88.2249 732.066 86.8681 729.581 85.7663C727.091 84.6543 724.288 83.9198 721.162 83.5627C718.036 83.2108 715.119 83.4352 712.41 84.236Z" fill="black"/>
<path d="M816.436 93.1524L805.308 104.721H797.014L797.159 134.245C797.061 137.607 798.347 139.708 801.015 140.55C803.693 141.397 807.209 140.178 811.559 136.898L814.685 141.162L786.281 162.831C783.208 161.066 780.655 158.23 778.613 154.322C776.581 150.42 775.57 145.498 775.57 139.55V104.721H758.586V100.334L771.485 89.1533H775.57C775.471 84.991 774.559 82.3334 772.84 81.1755C771.116 80.0227 768.219 80.7267 764.15 83.2975L761.712 78.9107L786.281 58.9561C789.001 60.9148 791.158 62.9143 792.742 64.9547C794.325 66.9951 795.456 69.4384 796.138 72.2796C796.816 75.1106 797.107 78.6965 797.014 83.0323V89.1533H816.436V93.1524Z" fill="black"/>
<path d="M849.451 89.1528C854.978 89.1528 859.891 90.2852 864.184 92.5398C868.487 94.7995 871.999 97.8141 874.708 101.579C877.427 105.348 879.173 109.516 879.939 114.086C880.715 118.656 880.282 123.319 878.647 128.062C877.021 132.796 874.031 137.254 869.686 141.427L842.928 162.83C838.854 162.83 835.009 161.545 831.383 158.974C827.757 156.403 824.673 153.057 822.13 148.935C819.598 144.814 817.864 140.32 816.921 135.449C815.972 130.567 816.087 125.798 817.254 121.146C818.431 116.483 820.969 112.423 824.86 108.965L849.451 89.1528ZM856.244 144.61C857.328 142.569 857.937 139.932 858.078 136.693C858.214 133.459 857.896 130.021 857.12 126.389C856.354 122.758 855.181 119.35 853.598 116.167C852.014 112.974 849.998 110.352 847.554 108.312C845.106 106.271 842.303 105.251 839.135 105.251C837.411 107.021 836.39 109.505 836.072 112.699C835.749 115.882 836.02 119.32 836.885 123.002C837.744 126.675 839.078 130.159 840.886 133.449C842.704 136.729 844.929 139.407 847.554 141.488C850.18 143.569 853.077 144.61 856.244 144.61Z" fill="black"/>
<path d="M929.05 119.738C927.768 117.616 926.361 115.494 924.819 113.372C923.288 111.24 921.662 109.709 919.943 108.781C918.218 107.843 916.405 108.261 914.504 110.026L913.691 110.821V112.821L913.837 134.367C913.738 137.744 914.321 140.254 915.587 141.896C916.864 143.528 919.088 143.238 922.256 141.019L925.382 145.14L902.959 162.83C899.885 160.968 897.332 158.112 895.29 154.261C893.248 150.399 892.273 145.584 892.372 139.815V119.085C892.273 115.004 891.341 112.387 889.58 111.229C887.814 110.077 884.938 110.781 880.952 113.351L878.66 109.108L902.959 89.1528C905.585 91.1014 907.71 93.0499 909.336 95.0087C910.971 96.9572 912.112 99.3495 912.753 102.191L926.591 89.1528C929.216 89.1528 931.727 89.9792 934.134 91.6217C936.536 93.2539 938.662 95.1413 940.511 97.2735C942.371 99.3954 943.866 101.283 944.992 102.925C946.127 104.558 946.7 105.374 946.7 105.374L929.05 119.738Z" fill="black"/>
<path d="M946.422 78.9103L966.532 63.0771L973.18 72.1363L951.465 85.8271L946.422 78.9103ZM983.787 140.896L986.913 145.14L964.49 162.83C961.5 161.065 958.988 158.255 956.946 154.404C954.914 150.542 953.904 145.681 953.904 139.815V119.085C953.721 115.004 952.747 112.413 950.986 111.311C949.22 110.199 946.344 110.837 942.359 113.229L940.191 108.965L964.49 89.1529C967.21 91.1014 969.366 93.0908 970.95 95.1312C972.534 97.1715 973.638 99.5689 974.264 102.313C974.899 105.063 975.181 108.567 975.097 112.821L975.368 134.367C975.269 137.744 975.853 140.223 977.119 141.815C978.395 143.406 980.62 143.1 983.787 140.896Z" fill="black"/>
<path d="M1016.12 135.836C1019.1 138.764 1022.63 140.539 1026.7 141.162C1030.77 141.774 1035.44 140.401 1040.69 137.04L1043.54 141.284L1014.74 162.83C1011.67 162.738 1008.57 161.519 1005.45 159.178C1002.32 156.826 999.446 153.766 996.821 149.996C994.195 146.232 992.038 142.131 990.36 137.693C988.693 133.26 987.787 128.894 987.651 124.594C987.511 120.299 988.391 116.463 990.298 113.086C991.199 111.673 992.783 109.658 995.049 107.047C997.31 104.425 999.978 101.737 1003.05 98.9874C1006.14 96.2431 1009.26 93.9171 1012.43 92.0093C1015.61 90.1067 1018.56 89.1528 1021.27 89.1528C1023.89 89.1528 1026.56 89.9588 1029.27 91.5605C1031.99 93.1519 1034.52 95.1668 1036.87 97.5999C1039.23 100.038 1041.14 102.589 1042.58 105.251C1044.04 107.904 1044.77 110.342 1044.77 112.556L1016.12 135.836ZM1008.51 104.313C1006.69 105.649 1005.8 107.735 1005.84 110.577C1005.9 113.408 1006.6 116.509 1007.95 119.881C1009.31 123.242 1010.94 126.43 1012.85 129.45L1024.39 119.881C1023.85 117.84 1022.96 115.734 1021.74 113.555C1020.52 111.383 1019.14 109.454 1017.6 107.781C1016.06 106.098 1014.49 104.879 1012.91 104.129C1011.32 103.369 1009.86 103.43 1008.51 104.313Z" fill="black"/>
<path d="M1064.05 103.639C1065.41 105.858 1067.35 107.679 1069.89 109.108C1072.43 110.526 1075.28 111.811 1078.45 112.964C1081.62 114.106 1084.81 115.326 1088.02 116.616C1091.24 117.912 1094.23 119.508 1097 121.411C1099.76 123.319 1101.98 125.752 1103.64 128.715C1105.32 131.684 1106.17 135.428 1106.17 139.958C1106.17 144.477 1105.17 148.221 1103.17 151.2C1101.18 154.169 1098.51 156.495 1095.16 158.178C1091.81 159.867 1088.1 161.065 1084.01 161.769C1079.94 162.478 1075.82 162.83 1071.66 162.83C1067.5 162.83 1063.47 162.371 1059.57 161.443C1055.68 160.504 1052.3 159.173 1049.44 157.444C1046.59 155.719 1044.5 153.608 1043.15 151.118L1063.24 132.776L1066.51 135.306C1065.51 136.275 1065.53 137.315 1066.57 138.427C1067.61 139.529 1069.29 140.621 1071.59 141.692C1073.9 142.753 1076.45 143.707 1079.26 144.549C1082.07 145.395 1084.73 146.079 1087.27 146.609C1089.81 147.14 1091.76 147.405 1093.12 147.405C1093.3 145.543 1092.28 143.814 1090.06 142.223C1087.85 140.621 1084.97 139.019 1081.43 137.428C1077.9 135.836 1074.14 134.199 1070.16 132.51C1066.18 130.827 1062.38 129.052 1058.76 127.185C1055.13 125.323 1052.18 123.262 1049.92 121.003C1047.67 118.748 1046.55 116.244 1046.55 113.494C1046.55 110.571 1047.38 107.873 1049.05 105.394C1050.72 102.905 1052.76 100.66 1055.15 98.6609C1057.55 96.6613 1059.98 94.9576 1062.42 93.5396C1064.87 92.1267 1066.93 91.0453 1068.59 90.2954C1070.27 89.5354 1071.11 89.1528 1071.11 89.1528C1074.56 89.1528 1078.02 89.5099 1081.51 90.2138C1085 90.9228 1088.4 91.6574 1091.7 92.4174C1095.01 93.1672 1098.09 93.5906 1100.94 93.6824C1103.78 93.764 1106.3 93.1876 1108.48 91.9481L1110.65 94.8658L1087.83 112.699C1085.66 112.699 1083.37 112.015 1080.97 110.638C1078.56 109.266 1076.23 107.781 1073.97 106.19C1071.7 104.588 1069.71 103.43 1067.99 102.721C1066.28 102.017 1064.97 102.323 1064.05 103.639Z" fill="black"/>
</g>
<mask id="mask1_2748_105576" style="mask-type:luminance" maskUnits="userSpaceOnUse" x="259" y="37" width="401" height="157">
<path d="M259.168 37.3062H659.283V193.975H259.168V37.3062Z" fill="white"/>
</mask>
<g mask="url(#mask1_2748_105576)">
<mask id="mask2_2748_105576" style="mask-type:luminance" maskUnits="userSpaceOnUse" x="259" y="37" width="401" height="157">
<path d="M659.283 37.2759H259.168V193.975H659.283V37.2759Z" fill="white"/>
</mask>
<g mask="url(#mask2_2748_105576)">
<path d="M286 89.1892L286.583 97.3099C291.72 91.0409 298.597 87.9038 307.214 87.9038C314.826 87.9038 320.489 90.0972 324.198 94.4738C327.908 98.8401 329.809 105.369 329.908 114.061V159.459H310.736V114.53C310.736 110.547 309.845 107.654 308.069 105.859C306.303 104.063 303.364 103.166 299.254 103.166C293.862 103.166 289.819 105.42 287.125 109.919V159.459H267.953V89.1892H286Z" fill="black"/>
<path d="M383.286 140.035C383.286 137.75 382.124 135.949 379.805 134.628C377.482 133.312 373.762 132.129 368.636 131.078C351.558 127.568 343.024 120.468 343.024 109.776C343.024 103.548 345.66 98.3453 350.943 94.1677C356.236 89.9952 363.144 87.9038 371.678 87.9038C380.79 87.9038 388.079 90.0054 393.539 94.2085C398.998 98.4014 401.728 103.849 401.728 110.552H382.556C382.556 107.874 381.671 105.655 379.91 103.9C378.144 102.146 375.377 101.268 371.616 101.268C368.391 101.268 365.89 101.982 364.113 103.411C362.347 104.839 361.467 106.665 361.467 108.879C361.467 110.96 362.472 112.643 364.489 113.918C366.5 115.183 369.891 116.285 374.658 117.224C379.436 118.152 383.463 119.198 386.745 120.366C396.873 123.998 401.937 130.297 401.937 139.26C401.937 145.666 399.123 150.859 393.497 154.828C387.881 158.786 380.639 160.765 371.761 160.765C365.744 160.765 360.404 159.714 355.736 157.623C351.068 155.516 347.406 152.634 344.754 148.972C342.097 145.314 340.773 141.361 340.773 137.117H358.945C359.122 140.453 360.383 143.009 362.717 144.789C365.062 146.559 368.208 147.441 372.157 147.441C375.825 147.441 378.597 146.763 380.472 145.401C382.348 144.044 383.286 142.254 383.286 140.035Z" fill="black"/>
<path d="M432.973 96.861C438.058 90.8929 444.445 87.9038 452.145 87.9038C467.702 87.9038 475.595 96.7538 475.819 114.449V159.459H456.646V114.979C456.646 110.955 455.756 107.981 453.979 106.063C452.213 104.135 449.274 103.166 445.164 103.166C439.548 103.166 435.484 105.288 432.973 109.532V159.459H413.801V59.7061H432.973V96.861Z" fill="black"/>
<path d="M487.281 123.671C487.281 116.709 488.646 110.501 491.387 105.043C494.137 99.59 498.081 95.3715 503.223 92.3926C508.376 89.4035 514.357 87.9038 521.166 87.9038C530.846 87.9038 538.754 90.8113 544.881 96.6161C551.008 102.411 554.425 110.287 555.134 120.243L555.259 125.038C555.259 135.827 552.18 144.478 546.027 150.992C539.885 157.511 531.638 160.765 521.291 160.765C510.955 160.765 502.702 157.521 496.534 151.032C490.365 144.534 487.281 135.699 487.281 124.528V123.671ZM506.453 125.038C506.453 131.705 507.73 136.806 510.288 140.341C512.856 143.866 516.529 145.626 521.312 145.626C525.949 145.626 529.569 143.886 532.169 140.402C534.779 136.923 536.087 131.343 536.087 123.671C536.087 117.142 534.779 112.082 532.169 108.491C529.569 104.89 525.902 103.084 521.166 103.084C516.482 103.084 512.856 104.874 510.288 108.45C507.73 112.031 506.453 117.56 506.453 125.038Z" fill="black"/>
<path d="M607.387 106.798C604.787 106.446 602.489 106.267 600.489 106.267C593.237 106.267 588.485 108.675 586.235 113.49V159.459H567.062V89.1892H585.172L585.714 97.5751C589.548 91.1276 594.873 87.9038 601.697 87.9038C603.807 87.9038 605.792 88.1844 607.657 88.7404L607.387 106.798Z" fill="black"/>
<path d="M642.864 71.9277V89.1892H655.138V102.962H642.864V138.035C642.864 140.637 643.369 142.499 644.385 143.626C645.412 144.743 647.365 145.299 650.241 145.299C652.351 145.299 654.227 145.151 655.868 144.85V159.071C652.117 160.199 648.246 160.765 644.26 160.765C630.824 160.765 623.973 154.124 623.713 140.831V102.962H613.23V89.1892H623.713V71.9277H642.864Z" fill="black"/>
</g>
</g>
<mask id="mask3_2748_105576" style="mask-type:luminance" maskUnits="userSpaceOnUse" x="208" y="39" width="56" height="163">
<path d="M263.171 39.8872H208.488V201.81H263.171V39.8872Z" fill="white"/>
</mask>
<g mask="url(#mask3_2748_105576)">
<path d="M236.068 84.8755C232.16 84.8755 228.805 83.5034 226.002 80.754C223.194 78.0097 221.793 74.7247 221.793 70.899C221.793 67.0938 223.194 63.8343 226.002 61.1257C228.805 58.4223 232.16 57.0654 236.068 57.0654C239.954 57.0654 243.304 58.4223 246.112 61.1257C248.915 63.8343 250.322 67.0938 250.322 70.899C250.322 74.7247 248.936 78.0097 246.175 80.754C243.408 83.5034 240.038 84.8755 236.068 84.8755ZM258.616 154.697C256.891 156.125 254.688 157.329 252.01 158.308C249.342 159.277 246.696 159.889 244.07 160.144L241.215 160.287L237.818 160.144C234.01 159.711 230.613 158.588 227.628 156.778C224.637 154.957 223.147 151.83 223.147 147.392V104.83C223.147 100.219 222.335 96.8932 220.709 94.8528C219.084 92.8125 216.5 91.7923 212.957 91.7923V91.6495H251.676V152.166C251.676 153.146 251.968 153.972 252.552 154.635C253.146 155.304 253.896 155.676 254.802 155.757C255.886 155.854 257.246 155.324 258.887 154.166L259.012 154.309L258.616 154.697Z" fill="black"/>
</g>
<mask id="mask4_2748_105576" style="mask-type:luminance" maskUnits="userSpaceOnUse" x="0" y="20" width="190" height="189">
<path d="M0 20H189.094V209H0V20Z" fill="white"/>
</mask>
<g mask="url(#mask4_2748_105576)">
<mask id="mask5_2748_105576" style="mask-type:luminance" maskUnits="userSpaceOnUse" x="0" y="20" width="189" height="189">
<path d="M21.9688 20H167.031C172.859 20 178.448 22.5448 182.568 27.0682C186.688 31.5916 189 37.7277 189 44.1211V184.879C189 191.278 186.688 197.414 182.568 201.938C178.448 206.461 172.859 209 167.031 209H21.9688C16.1458 209 10.5573 206.461 6.4375 201.938C2.31771 197.414 0 191.278 0 184.879V44.1211C0 37.7277 2.31771 31.5916 6.4375 27.0682C10.5573 22.5448 16.1458 20 21.9688 20Z" fill="white"/>
</mask>
<g mask="url(#mask5_2748_105576)">
<mask id="mask6_2748_105576" style="mask-type:luminance" maskUnits="userSpaceOnUse" x="-1" y="18" width="191" height="192">
<path d="M189.091 18.9707H-0.242188V209.286H189.091V18.9707Z" fill="white"/>
</mask>
<g mask="url(#mask6_2748_105576)">
<mask id="mask7_2748_105576" style="mask-type:luminance" maskUnits="userSpaceOnUse" x="0" y="20" width="190" height="189">
<path d="M0 20H189.094V209H0V20Z" fill="white"/>
</mask>
<g mask="url(#mask7_2748_105576)">
<mask id="mask8_2748_105576" style="mask-type:luminance" maskUnits="userSpaceOnUse" x="0" y="20" width="189" height="189">
<path d="M21.9688 20H167.031C172.859 20 178.448 22.5448 182.568 27.0682C186.688 31.5916 189 37.7277 189 44.1211V184.879C189 191.278 186.688 197.414 182.568 201.938C178.448 206.461 172.859 209 167.031 209H21.9688C16.1458 209 10.5573 206.461 6.4375 201.938C2.31771 197.414 0 191.278 0 184.879V44.1211C0 37.7277 2.31771 31.5916 6.4375 27.0682C10.5573 22.5448 16.1458 20 21.9688 20Z" fill="white"/>
</mask>
<g mask="url(#mask8_2748_105576)">
<path d="M0 20H188.948V209H0V20Z" fill="#C20000"/>
</g>
</g>
</g>
</g>
</g>
<path d="M54.1375 82.7669C49.3563 82.7669 45.2417 81.0482 41.7834 77.6003C38.3355 74.1419 36.6167 70.0169 36.6167 65.2253C36.6167 60.4492 38.3355 56.3659 41.7834 52.9753C45.2417 49.5742 49.3563 47.8711 54.1375 47.8711C58.9292 47.8711 63.0438 49.5742 66.4917 52.9753C69.95 56.3659 71.6792 60.4492 71.6792 65.2253C71.6792 70.0169 69.9761 74.1419 66.575 77.6003C63.1844 81.0482 59.0386 82.7669 54.1375 82.7669ZM81.8667 170.392C79.7417 172.184 77.0386 173.694 73.7625 174.913C70.4813 176.137 67.2261 176.913 63.9917 177.246L60.4917 177.413L56.325 177.246C51.6427 176.694 47.4605 175.277 43.7834 172.996C40.1167 170.704 38.2834 166.783 38.2834 161.225V107.809C38.2834 102.017 37.2834 97.8451 35.2834 95.2878C33.2834 92.7201 30.1063 91.4336 25.7625 91.4336V91.2669H73.3459V167.225C73.3459 168.449 73.7052 169.486 74.4292 170.329C75.148 171.163 76.0646 171.637 77.1792 171.746C78.5125 171.861 80.1844 171.184 82.2 169.725L82.3667 169.892L81.8667 170.392Z" fill="white"/>
<mask id="mask9_2748_105576" style="mask-type:luminance" maskUnits="userSpaceOnUse" x="93" y="45" width="75" height="139">
<path d="M93.0938 45H167.76V183.302H93.0938V45Z" fill="white"/>
</mask>
<g mask="url(#mask9_2748_105576)">
<path fill-rule="evenodd" clip-rule="evenodd" d="M100.026 151.036C100.026 151.036 98.8438 136.224 105.5 129.141C112.156 122.057 129.974 105.526 131.479 92C131.479 92 135.771 100.37 133.625 106.385C133.625 106.385 139.208 99.3021 138.563 89.2083C138.563 89.2083 146.505 66.0208 137.063 44.9844C137.063 44.9844 177.849 78.9063 153.807 119.698C153.807 119.698 163.036 114.328 167.115 105.953C167.115 105.953 160.245 133.432 133.625 147.385C133.625 147.385 142.318 145.776 148.12 141.911C148.12 141.911 135.557 155.974 114.089 160.052C92.6198 164.13 97.9896 183.24 97.9896 183.24C97.9896 183.24 86.1823 168.854 102.495 155.76C118.813 142.667 144.578 128.068 148.87 107.026C148.87 107.026 142.859 122.49 125.901 134.078C108.932 145.672 100.026 151.036 100.026 151.036Z" fill="white"/>
</g>
</svg>